<?xml version="1.0" encoding="utf-8"?>
<!-- Generator: Adobe Illustrator 12.0.0, SVG Export Plug-In . SVG Version: 6.00 Build 51448)  -->
<!DOCTYPE svg PUBLIC "-//W3C//DTD SVG 1.1//EN" "http://www.w3.org/Graphics/SVG/1.1/DTD/svg11.dtd" [
	<!ENTITY ns_svg "http://www.w3.org/2000/svg">
	<!ENTITY ns_xlink "http://www.w3.org/1999/xlink">
]>
<svg  version="1.1" id="Layer_1" xmlns="&ns_svg;" xmlns:xlink="&ns_xlink;" width="269.291" height="300.197"
	 viewBox="0 0 269.291 425.197" overflow="visible" enable-background="new 0 0 269.291 425.197" xml:space="preserve">
<g>
	<defs>
		<rect id="XMLID_1_" width="269.291" height="425.197"/>
	</defs>
	<clipPath id="XMLID_3_">
		<use xlink:href="#XMLID_1_" />
	</clipPath>
	<path clip-path="url(#XMLID_3_)" fill="#FED700" d="M128.893,86.683c-7.647,11.466-10.539,23.279-7.557,30.87l0.551,1.402
		l1.627-0.207c0.895-0.113,3.112-0.297,4.928-0.407l3.301-0.202v-17.663c0-9.715-0.06-17.663-0.135-17.663
		C131.534,82.813,130.312,84.553,128.893,86.683"/>
	<path clip-path="url(#XMLID_3_)" fill="#FED700" d="M111.152,121.285c0.834,2.472,0.896,2.486,3.623,0.829
		c1.155-0.701,2.475-1.369,2.934-1.485c1.077-0.27,1.31-0.677,0.884-1.537c-1.048-2.117-1.342-3.912-1.341-8.193
		c0.005-9.457,2.998-16.862,11.743-29.057l2.747-3.831v-8.428v-8.427l-0.968-3.261c-1.234-4.154-1.676-8.253-1.076-9.982
		c0.541-1.558,0.549-1.489-0.157-1.489c-0.35,0-1.195,0.817-2.08,2.012c-5,6.754-5.48,8.345-5.552,18.436
		c-0.075,10.513-0.022,10.305-3.678,14.19c-7.906,8.397-11.991,16.716-11.971,24.377c0.011,4.028,0.228,4.865,2.716,10.452
		C109.782,117.701,110.761,120.127,111.152,121.285"/>
	<path clip-path="url(#XMLID_3_)" fill="#FED700" d="M112.259,84.82c1.063-1.535,3.142-4.072,4.62-5.638l2.689-2.848l-0.232-2.627
		c-0.47-5.311-1.759-8.22-5.513-12.449c-1.126-1.268-2.047-2.444-2.047-2.613c0-0.168-0.234-0.306-0.519-0.306
		c-0.445,0-0.48,0.222-0.242,1.529c0.153,0.841,0.265,3.414,0.248,5.716c-0.029,4.236-0.113,4.725-1.876,10.949
		c-0.978,3.456-1.066,6.474-0.268,9.192C109.842,88.182,109.952,88.151,112.259,84.82"/>
	<path clip-path="url(#XMLID_3_)" fill="#FED700" d="M98.09,153.679c4.319-2.863,4.201-2.26,1.464-7.49
		c-1.248-2.385-2.172-4.434-2.054-4.552c0.118-0.118,0.037-0.214-0.181-0.214c-0.216,0-0.305-0.145-0.195-0.322
		c0.11-0.177,0.046-0.322-0.142-0.322s-0.341-0.18-0.341-0.398c0-1.955-5.94-11.906-11.272-18.881
		c-8.107-10.608-11.969-15.506-12.198-15.466c-0.11,0.02-3.025,1.691-6.479,3.714c-3.454,2.024-6.823,3.908-7.487,4.187
		c-0.665,0.279-1.208,0.72-1.208,0.98c0,0.458,3.023,7.538,5.473,12.82c1.009,2.174,1.568,3.538,1.784,4.348
		c0.209,0.788,4.666,10.671,5.019,11.132c0.161,0.209-0.432,1.026-1.518,2.093c-0.979,0.962-2.883,3.2-4.228,4.971
		c-1.347,1.771-2.558,3.346-2.693,3.502c-0.136,0.155-3.192-1.023-6.791-2.618c-3.6-1.595-7.923-3.445-9.605-4.114
		c-1.682-0.668-4.418-1.844-6.078-2.615c-1.661-0.771-3.208-1.401-3.439-1.401c-0.667,0-9.364,15.069-8.934,15.48
		c0.051,0.049,1.39,1.055,3.401,2.56h58.973C92.064,158.226,94.994,155.73,98.09,153.679"/>
	<path clip-path="url(#XMLID_3_)" fill="#FED700" d="M137.941,51.837c3.59,1.341,6.824,5.08,8.029,9.281
		c2.528,8.815-0.287,16.171-7.266,18.976l-1.648,0.664l-0.089,6.018l-0.088,6.019h1.64c1.775,0,3.396-0.88,5.278-2.866
		c2.008-2.119,2.816-1.197,2.372,2.705c-0.402,3.556-1.631,6.117-3.758,7.849c-0.791,0.642-1.993,1.656-2.672,2.252l-1.235,1.084
		v-2.935c0-2.917-0.005-2.936-0.806-2.936h-0.805v9.974v9.976l0.886,0.453c0.97,0.495,4.45,1.866,6.138,2.416
		c1.964,0.639,6.51,0.778,8.273,0.252c0.885-0.264,2.582-0.761,3.773-1.105c3.38-0.975,5.268-2.619,2.271-1.976
		c-6.731,1.442-8.809,1.23-13.133-1.343c-2.768-1.647-3.955-2.743-4.955-4.575l-0.771-1.413l0.717-0.968
		c0.394-0.532,2.35-2.502,4.346-4.377c5.777-5.421,8.016-10.659,6.682-15.632c-1.051-3.92,0.482-4.543,6.363-2.585
		c6.033,2.011,10.498,6.837,10.91,11.794c0.186,2.241,0.551,2.376,1.028,0.382c1.511-6.295-3.69-14.196-12.06-18.32
		c-5.749-2.833-5.266-2.03-5.25-8.716c0.021-8.773-2.133-13.472-8.504-18.554c-3.199-2.553-6.715-3.916-6.715-2.604
		C136.895,51.258,137.365,51.622,137.941,51.837"/>
	<path clip-path="url(#XMLID_3_)" fill="#FED700" d="M137.057,76.533l1.199,0.296c1.73,0.428,4.758-1.718,4.758-3.374
		c0-0.314-4.073-2.225-5.246-2.462l-0.899-0.181l0.093,2.86L137.057,76.533z"/>
	<path clip-path="url(#XMLID_3_)" fill="#FED700" d="M234.357,150.545c-0.627-4.456-0.633-4.457-14.193-2.172
		c-5.529,0.931-5.225,0.817-5.499,2.067c-0.292,1.328-1.662,2.358-6.791,5.107c-7.455,3.998-10.737,4.803-11.397,2.8
		c-0.568-1.722,0.061-2.313,6.193-5.821c6.898-3.947,20.868-12.636,21.426-13.328c1.296-1.609,1.378-1.905,1.387-5.009
		c0.018-6.347-1.907-6.87-11.169-3.03c-7.754,3.215-8.049,3.396-7.919,4.858c0.16,1.823-13.59,13.986-15.35,13.575
		c-2.685-0.626-2.219-2.848,1.183-5.631c1.358-1.113,4.139-3.504,6.175-5.315c2.037-1.81,4.806-4.137,6.152-5.169
		c4.614-3.537,9.908-10.096,10.587-13.116c0.475-2.112-2.712-7.278-4.489-7.278c-0.728,0-6.415,2.966-7.098,3.702
		c-0.442,0.477-1.819,1.459-3.059,2.181c-2.448,1.428-5.637,3.727-5.637,4.067c0,0.116,0.225,0.532,0.5,0.924
		c1.157,1.652-0.061,3.629-7.336,11.909c-3.136,3.57-3.205,3.623-4.579,3.623c-3.163,0-2.666-2.787,1.364-7.638
		c5.293-6.372,8.996-11.508,12.965-17.984c3.326-5.426,1.354-12.494-3.822-13.697c-1.814-0.421-2.127-0.359-3.004,0.596
		c-2.972,3.233-14.902,27.279-16.535,33.328c-0.695,2.57-1.494,3.072-4.044,2.546c-3.587-0.741-5.845,0.623-4.939,2.985
		c0.156,0.408,0.729,0.509,2.887,0.509c5.739,0,9.483,2.974,16.62,13.203c1.697,2.433,3.183,5.033,4.492,7.735h33.248
		C233.831,157.614,235.157,156.239,234.357,150.545"/>
	<path clip-path="url(#XMLID_3_)" fill="#FED700" d="M144.242,251.23c-3.896,1.023-3.945,0.989-3.698-2.659
		c0.111-1.635,0.355-5.942,0.542-9.572c0.046-0.895,0.101-1.87,0.164-2.926h-4.344v3.488l0.014,113.919l1.764-1.932
		c5.236-5.736,8.43-16.084,5.939-19.25c-1.003-1.275-0.821-2.252,0.668-3.597l1.313-1.187l-0.146-2.476
		c-0.08-1.36-0.523-3.853-0.984-5.534c-1.241-4.531-5.327-32.704-4.812-33.181c0.551-0.509,3.987-1.276,5.71-1.276
		c0.996,0,2.635-0.29,3.644-0.644c1.007-0.355,2.174-0.646,2.591-0.646c0.418,0,1.4-0.375,2.186-0.836l1.426-0.834v-2.725
		c0-3.729,1.539-6.177,5.195-8.264c2.243-1.277,2.232-1.653-0.217-7.533c-3.867-9.29-4.627-13.62-2.389-13.62
		c1.018,0,1.516,1.166,2.893,6.763c1.176,4.776,4.943,15.827,7.852,23.028c1.102,2.726,4.584,4.014,8.746,3.232l1.201-0.224
		l-0.182-4.082c-0.398-8.92-1.857-13.905-4.068-13.905c-0.644,0-1.285-0.999-5.586-8.695c-2.662-4.766-3.226-6.615-2.271-7.479
		c0.811-0.733,2.328-1.265,3.002-1.052c0.708,0.224,9.151,13.146,12.056,18.449c3.155,5.761,6.095,8.761,8.584,8.761
		c1.536,0,4.378-0.986,5.12-1.775c1.794-1.91-3.59-16.065-6.564-17.261c-1.937-0.781-11.363-10.856-11.941-12.767
		c-0.273-0.899,1.367-3.575,2.658-4.334c1.876-1.104,2.055-1,5.055,2.949c5.712,7.513,16.737,19.556,18.925,20.671
		c1.306,0.667,2.392,0.678,5.968,0.063c2.455-0.422,3.418-4.049,1.818-6.846c-1.961-3.433-7.592-10.648-8.458-10.839
		c-3.234-0.715-3.818-1.108-10.78-7.313c-0.497-0.443-0.938-0.841-1.353-1.22h-17.508C165.68,243.69,157.754,247.681,144.242,251.23
		"/>
	<path clip-path="url(#XMLID_3_)" fill="#FED700" d="M218.045,236.072h-18.964c14.625,12.559,18.195,14.444,21.999,12.423
		c3.656-1.943,5.036-3.871,4.566-6.375C225.518,241.429,222.303,238.963,218.045,236.072"/>
	<path clip-path="url(#XMLID_3_)" fill="#FED700" d="M122.717,236.072c0.068,1.998,0.131,3.813,0.186,5.342l0.194,5.473
		l-1.572,1.771c-0.866,0.976-2.514,2.945-3.663,4.381l-2.091,2.606l-3.205-1.023c-10.787-3.452-19.939-10.117-26.735-18.55H48.795
		l-5.722,4.157c-5.341,3.881-10.254,7.402-10.918,7.823c-1.46,0.93-1.785,0.072,3.282,8.665c2.312,3.921,4.203,7.261,4.203,7.424
		c0,0.538,0.5,0.341,12.745-5.016c14.151-6.192,12.197-5.707,13.985-3.465c2.187,2.743,6.394,7.079,9.1,9.381l2.414,2.052
		l-1.051,2.295c-0.579,1.263-2.031,4.469-3.227,7.127c-1.196,2.656-2.879,6.331-3.74,8.166c-0.86,1.836-1.565,3.391-1.565,3.457
		c0,0.067-0.431,1.011-0.959,2.1c-0.915,1.892-0.991,2.539-0.296,2.539c0.174,0,3.569,1.884,7.546,4.187
		c3.977,2.302,7.364,4.222,7.529,4.267c0.26,0.071,9.756-12.506,14.604-19.341c1.153-1.626,1.822-2.299,2.161-2.177
		c6.462,2.307,10.89,3.516,17.233,4.7c1.946,0.361,3.63,0.764,3.744,0.889c1.013,1.13,6.727,28.664,6.727,32.416
		c0,2.222-0.117,4.042-0.259,4.042c-0.471,0-3.014,2.715-3.77,4.026c-2.645,4.584-0.985,10.875,3.626,13.733l1.046,0.649
		l0.002,4.724c0.002,2.598,0.095,5.918,0.209,7.381l0.207,2.656h2.045h2.046v-116.38v-2.478H122.717z"/>
	<path clip-path="url(#XMLID_3_)" fill="#FED700" d="M114.982,125.833c-5.527,2.846-6.884,4.522-8.06,9.954
		c-1.377,6.36-1.078,7.33,2.665,8.653c6.85,2.422,9.392,5.297,10.486,16.632h11.626c-0.052-29.698-0.159-38.98-0.36-39.057
		C129.051,121.137,119.997,123.251,114.982,125.833"/>
	<path clip-path="url(#XMLID_3_)" fill="#FED700" d="M150.421,156.075c1.117-5.817,2.872-12.042,4.833-17.129
		c2.084-5.41,2.184-5.95,1.43-7.754c-1.631-3.904-5.912-5.549-14.441-5.549h-5.348l0.004,35.43h12.534
		C149.872,158.874,150.24,157.012,150.421,156.075"/>
</g>
<g>
	<path fill="#FED700" d="M56.248,175.716v11.72c0,2.72-1.08,5.68-3.64,6.84c-1.52,0.68-3.16,1.08-4.88,1.08
		c-1.92,0-3.56-0.2-5.4-1.36c-2.76-1.76-3.04-4.52-3.04-7.4v-10.88h-3.12v-3.72h10.48v3.72h-3.68v11.24c0,2.12,0.32,4.68,4.68,4.68
		c4,0,4.92-1.88,4.92-5.36v-10.56h-3.76v-3.72h10.48v3.72H56.248z"/>
</g>
<g>
	<path fill="#FED700" d="M76.607,182.076c-0.12-1-0.28-1.4-1.28-1.4c-0.88,0-1.84,0.44-2.64,0.88c-1.64,0.92-3.08,2.04-4.52,3.24
		v6.36h7.28v3.72h-15.28v-3.72h4.28v-9.92h-4.32v-3.72h8.04v2.8c2-1.6,4.4-3.36,7.16-3.36c2.76,0,3.96,1.48,4.32,2.48
		c0.24,0.64,0.48,1.32,0.48,2.08L76.607,182.076z"/>
	<path fill="#FED700" d="M91.127,194.876v-3.72h3.04v-7.84c0-1.32-0.48-2.64-2.56-2.64c-1.08,0-3.16,0.36-5.88,2.32v8.16h3v3.72
		h-9.76v-3.72h3.08v-17.4h-3.08v-3.72h6.76v8.84c1.84-1.04,3.64-1.88,5.92-1.88c4.04,0,5.28,2.44,5.52,2.96
		c0.52,1.12,0.68,2.36,0.68,3.64v7.56h3.08v3.72H91.127z"/>
	<path fill="#FED700" d="M109.687,195.356c-4.36,0-10.48-2.36-10.48-9.12c0-6.12,5.08-9.28,10.28-9.28c6.88,0,10.16,4.68,10.16,9.2
		C119.647,192.636,114.287,195.356,109.687,195.356z M109.367,180.676c-3.56,0-6.4,2.12-6.4,5.52c0,4.4,4.28,5.44,6.64,5.44
		c3.12,0,6.32-1.68,6.32-5.56C115.927,183.676,114.127,180.676,109.367,180.676z"/>
</g>
<g>
	<path fill="#FED700" d="M150.728,175.716l0.561,15.44h2.119v3.72h-9.52v-3.72h3.72l-0.6-12.64l-4.2,11.28h-2.4l-4.04-11.4
		l-0.64,12.76h3.8v3.72h-9.72v-3.72h2.2l0.64-15.44h-3v-3.72h7.96l4.12,11.4l4.32-11.4h7.8v3.72H150.728z"/>
</g>
<g>
	<path fill="#FED700" d="M169.248,194.876v-1.88c-0.6,0.36-1.8,1.12-1.8,1.12c-1.12,0.68-3.12,1.24-4.88,1.24
		c-4.48,0-6.88-3.16-6.88-5.76c0-0.76,0.359-6.24,9.239-6.24c1.4,0,2.96,0.12,4.32,0.28v-0.48c0-2.4-2.96-2.48-3.92-2.48
		c-2.36,0-4.68,0.68-6.88,1.56l-1.44-3.2c2.561-1.08,5.561-2.08,8.48-2.08c0.8,0,5.28,0,6.76,3.2c0.6,1.28,0.6,2.88,0.6,4.36v6.64
		h3.08v3.72H169.248z M169.248,187.356c-1.16-0.08-2.64-0.32-4.88-0.32c-2.04,0-5,0.64-5,2.6c0,1.28,1.56,2,3.16,2
		c2.6,0,4.88-1.36,6.72-3.08V187.356z"/>
	<path fill="#FED700" d="M186.568,195.356c-2.8,0-6.88-0.8-6.88-6.28v-7.84h-2.521v-3.72h2.521v-5.32h3.72v5.32h9.52v3.72h-9.52
		v6.96c0,1.72,0.2,3.48,3.2,3.48c2.6,0,6.6-1.76,8.04-2.4l0.64,3.68C192.688,194.076,189.608,195.356,186.568,195.356z"/>
	<path fill="#FED700" d="M206.607,195.356c-2.8,0-6.88-0.8-6.88-6.28v-7.84h-2.521v-3.72h2.521v-5.32h3.72v5.32h9.52v3.72h-9.52
		v6.96c0,1.72,0.2,3.48,3.2,3.48c2.6,0,6.6-1.76,8.04-2.4l0.64,3.68C212.728,194.076,209.647,195.356,206.607,195.356z"/>
	<path fill="#FED700" d="M217.087,194.876v-3.72h6.681v-9.92h-5.601v-3.72h9.32v13.64h6.56v3.72H217.087z M223.247,175.156v-5.96
		h4.24v5.96H223.247z"/>
</g>
<g>
	<path fill="#FED700" d="M117.808,225.997c-3.72,0-6.52-1.48-8.44-2.2l1.36-3.12c3.6,1.24,4.72,1.64,6.68,1.64
		c2.6,0,4.84-1.399,4.84-3.88c0-3.24-3.32-3.56-4.64-3.56h-2.12v-3.68h0.56c1.72,0,5.04-0.28,5.04-3.32c0-2.36-2.12-3.12-3.68-3.12
		c-1.6,0-2.92,0.48-5.64,2.04l-1.8-2.88c2.28-1.48,4.56-2.88,7.4-2.88c2.52,0,4.76,0.92,6.36,2.96c0.76,1,1.04,2.32,1.04,3.64
		c0,2.76-1.4,4.12-2.4,5.04c1.84,1.28,3.52,2.52,3.52,5.92C125.888,224.236,120.808,225.997,117.808,225.997z"/>
	<path fill="#FED700" d="M134.768,225.997c-2.88,0-3.88-2.2-3.88-3.24c0-1.681,1.48-3.36,3.8-3.36c2.479,0,3.76,1.76,3.76,3.32
		C138.447,224.516,136.848,225.997,134.768,225.997z"/>
	<path fill="#FED700" d="M150.728,225.997c-7.48,0-8.08-8.921-8.08-12.4c0-3,0.28-12.56,8.16-12.56c7.24,0,7.96,8.28,7.96,12.52
		C158.768,216.516,158.447,225.997,150.728,225.997z M150.728,204.716c-4.08,0-4.32,5.88-4.4,8.2v1c0,3.081,0.48,8.4,4.48,8.4
		c3.76,0,4.32-5.439,4.32-8.64C155.128,211.356,154.968,204.716,150.728,204.716z"/>
</g>
</svg>
